<?xml version="1.0" encoding="UTF-8"?>
<svg id="Layer_2" data-name="Layer 2" xmlns="http://www.w3.org/2000/svg" viewBox="148 210 470 372">
  <g id="Layer_1-2" data-name="Layer 1">
    <g fill="hsl(0, 85%, 49%)">
      <path d="M557.77,412.49c21.43-36.2,36.97-62.46,54.43-63.52-.77-2.37-4.04-5.99-9.02-5.83-13.51.43-30.44,11.57-48.36,23.37-21.23,13.97-45.29,29.81-68.92,30.56-30.04.95-34.53-17.77-34.53-29.01,0-21.99,17.1-56.16,43.57-87.05,28-32.67,58.21-52.6,80.83-53.32,3.59-.11,13.81.29,17.48,8.07-.04,0-.07,0-.11,0,5.76,15.89-28.19,62.59-103.89,66.53-10.98,15.02-19.82,30.58-24.79,44.33,8.92,1.11,18.11,1.67,27.69,1.37,44.07-.82,126.55-42.68,118.22-99.63-1.57-19.86-18.22-33.48-40.77-32.77-28.41.9-69.21,24.96-103.96,61.28-37.03,38.72-59.14,82.5-59.14,117.11,0,27.22,19.53,44.9,48.6,43.97,35.16-1.12,65.12-28.04,91.57-51.79l1.02-.92,2.82,2.76c.26-.23.53-.47.79-.71-.22.27-.45.54-.68.81l3.21,3.13c-31.98,38.28-75.77,90.71-116.57,92-20.1.64-33.6-13.86-33.6-27.8,0-2.33-.55-3.22-.7-3.33,0,0-.06,0-.18,0-5.61.18-21.81,17.11-21.81,42.49,0,24.07,19.46,43.04,43.36,42.28,60.96-1.93,101.14-69.82,133.43-124.37Z"/>
      <path d="M433.05,302.83c-26.74-.94-53.26-3.35-76.35-2.62-66.8,2.12-133.29,51.03-133.29,103.1,0,19.84,16.01,34.21,35.71,33.58,24.93-.79,39.4-25.74,39.4-36.27,0-3.1-1.23-4.92-3.39-4.85-20.01.64-29.55-8.98-29.56-21.38,0-21.08,27.39-50.15,78.5-51.77,19.7-.63,36.94,2.55,55.1,9.72-65.26,54.76-132.97,180.89-185,182.54-17.55.56-29.25-12.09-29.25-23.56,0-5.27-2.15-7.68-5.23-7.58-8.93.28-26.16,20.36-26.16,47.01,0,26.35,20.94,47.38,47.72,46.53,78.63-2.49,144.96-146.47,202.63-218.57,6.07-18.77,16.32-37.85,29.16-55.87Z"/>
      <path d="M397.48,430.98c2.2-8.07-2.37-14.39-10.14-14.14-7.77.25-15.89,6.97-18.25,15.04-2.2,8.07,2.37,14.56,10.14,14.31,7.77-.25,15.89-7.14,18.25-15.21Z"/>
    </g>
  </g>
</svg>
